<svg width="198" height="36" viewBox="0 0 198 36" fill="none" xmlns="http://www.w3.org/2000/svg">
<path d="M20.875 23.6797H27.8828C27.7422 25.9766 27.1094 28.0156 25.9844 29.7969C24.875 31.5781 23.3203 32.9688 21.3203 33.9688C19.3359 34.9688 16.9453 35.4688 14.1484 35.4688C11.9609 35.4688 10 35.0938 8.26562 34.3438C6.53125 33.5781 5.04688 32.4844 3.8125 31.0625C2.59375 29.6406 1.66406 27.9219 1.02344 25.9062C0.382812 23.8906 0.0625 21.6328 0.0625 19.1328V16.7656C0.0625 14.2656 0.390625 12.0078 1.04688 9.99219C1.71875 7.96094 2.67188 6.23438 3.90625 4.8125C5.15625 3.39062 6.64844 2.29688 8.38281 1.53125C10.1172 0.765625 12.0547 0.382812 14.1953 0.382812C17.0391 0.382812 19.4375 0.898438 21.3906 1.92969C23.3594 2.96094 24.8828 4.38281 25.9609 6.19531C27.0547 8.00781 27.7109 10.0703 27.9297 12.3828H20.8984C20.8203 11.0078 20.5469 9.84375 20.0781 8.89062C19.6094 7.92188 18.8984 7.19531 17.9453 6.71094C17.0078 6.21094 15.7578 5.96094 14.1953 5.96094C13.0234 5.96094 12 6.17969 11.125 6.61719C10.25 7.05469 9.51562 7.71875 8.92188 8.60938C8.32812 9.5 7.88281 10.625 7.58594 11.9844C7.30469 13.3281 7.16406 14.9062 7.16406 16.7188V19.1328C7.16406 20.8984 7.29688 22.4531 7.5625 23.7969C7.82812 25.125 8.23438 26.25 8.78125 27.1719C9.34375 28.0781 10.0625 28.7656 10.9375 29.2344C11.8281 29.6875 12.8984 29.9141 14.1484 29.9141C15.6172 29.9141 16.8281 29.6797 17.7812 29.2109C18.7344 28.7422 19.4609 28.0469 19.9609 27.125C20.4766 26.2031 20.7812 25.0547 20.875 23.6797ZM44.8047 27.875L52.8438 0.875H60.6719L48.7891 35H43.6328L44.8047 27.875ZM37.3984 0.875L45.4141 27.875L46.6328 35H41.4297L29.6172 0.875H37.3984ZM95.5938 23.6797H102.602C102.461 25.9766 101.828 28.0156 100.703 29.7969C99.5938 31.5781 98.0391 32.9688 96.0391 33.9688C94.0547 34.9688 91.6641 35.4688 88.8672 35.4688C86.6797 35.4688 84.7188 35.0938 82.9844 34.3438C81.25 33.5781 79.7656 32.4844 78.5312 31.0625C77.3125 29.6406 76.3828 27.9219 75.7422 25.9062C75.1016 23.8906 74.7812 21.6328 74.7812 19.1328V16.7656C74.7812 14.2656 75.1094 12.0078 75.7656 9.99219C76.4375 7.96094 77.3906 6.23438 78.625 4.8125C79.875 3.39062 81.3672 2.29688 83.1016 1.53125C84.8359 0.765625 86.7734 0.382812 88.9141 0.382812C91.7578 0.382812 94.1562 0.898438 96.1094 1.92969C98.0781 2.96094 99.6016 4.38281 100.68 6.19531C101.773 8.00781 102.43 10.0703 102.648 12.3828H95.6172C95.5391 11.0078 95.2656 9.84375 94.7969 8.89062C94.3281 7.92188 93.6172 7.19531 92.6641 6.71094C91.7266 6.21094 90.4766 5.96094 88.9141 5.96094C87.7422 5.96094 86.7188 6.17969 85.8438 6.61719C84.9688 7.05469 84.2344 7.71875 83.6406 8.60938C83.0469 9.5 82.6016 10.625 82.3047 11.9844C82.0234 13.3281 81.8828 14.9062 81.8828 16.7188V19.1328C81.8828 20.8984 82.0156 22.4531 82.2812 23.7969C82.5469 25.125 82.9531 26.25 83.5 27.1719C84.0625 28.0781 84.7812 28.7656 85.6562 29.2344C86.5469 29.6875 87.6172 29.9141 88.8672 29.9141C90.3359 29.9141 91.5469 29.6797 92.5 29.2109C93.4531 28.7422 94.1797 28.0469 94.6797 27.125C95.1953 26.2031 95.5 25.0547 95.5938 23.6797ZM135.25 17.1406V18.7578C135.25 21.3516 134.898 23.6797 134.195 25.7422C133.492 27.8047 132.5 29.5625 131.219 31.0156C129.938 32.4531 128.406 33.5547 126.625 34.3203C124.859 35.0859 122.898 35.4688 120.742 35.4688C118.602 35.4688 116.641 35.0859 114.859 34.3203C113.094 33.5547 111.562 32.4531 110.266 31.0156C108.969 29.5625 107.961 27.8047 107.242 25.7422C106.539 23.6797 106.188 21.3516 106.188 18.7578V17.1406C106.188 14.5312 106.539 12.2031 107.242 10.1562C107.945 8.09375 108.938 6.33594 110.219 4.88281C111.516 3.42969 113.047 2.32031 114.812 1.55469C116.594 0.789062 118.555 0.40625 120.695 0.40625C122.852 0.40625 124.812 0.789062 126.578 1.55469C128.359 2.32031 129.891 3.42969 131.172 4.88281C132.469 6.33594 133.469 8.09375 134.172 10.1562C134.891 12.2031 135.25 14.5312 135.25 17.1406ZM128.148 18.7578V17.0938C128.148 15.2812 127.984 13.6875 127.656 12.3125C127.328 10.9375 126.844 9.78125 126.203 8.84375C125.562 7.90625 124.781 7.20312 123.859 6.73438C122.938 6.25 121.883 6.00781 120.695 6.00781C119.508 6.00781 118.453 6.25 117.531 6.73438C116.625 7.20312 115.852 7.90625 115.211 8.84375C114.586 9.78125 114.109 10.9375 113.781 12.3125C113.453 13.6875 113.289 15.2812 113.289 17.0938V18.7578C113.289 20.5547 113.453 22.1484 113.781 23.5391C114.109 24.9141 114.594 26.0781 115.234 27.0312C115.875 27.9688 116.656 28.6797 117.578 29.1641C118.5 29.6484 119.555 29.8906 120.742 29.8906C121.93 29.8906 122.984 29.6484 123.906 29.1641C124.828 28.6797 125.602 27.9688 126.227 27.0312C126.852 26.0781 127.328 24.9141 127.656 23.5391C127.984 22.1484 128.148 20.5547 128.148 18.7578ZM140.312 0.875H153.039C155.648 0.875 157.891 1.26562 159.766 2.04688C161.656 2.82812 163.109 3.98438 164.125 5.51562C165.141 7.04688 165.648 8.92969 165.648 11.1641C165.648 12.9922 165.336 14.5625 164.711 15.875C164.102 17.1719 163.234 18.2578 162.109 19.1328C161 19.9922 159.695 20.6797 158.195 21.1953L155.969 22.3672H144.906L144.859 16.8828H153.086C154.32 16.8828 155.344 16.6641 156.156 16.2266C156.969 15.7891 157.578 15.1797 157.984 14.3984C158.406 13.6172 158.617 12.7109 158.617 11.6797C158.617 10.5859 158.414 9.64062 158.008 8.84375C157.602 8.04688 156.984 7.4375 156.156 7.01562C155.328 6.59375 154.289 6.38281 153.039 6.38281H147.344V35H140.312V0.875ZM159.391 35L151.609 19.7891L159.039 19.7422L166.914 34.6719V35H159.391ZM184.352 22.8359H175.656V17.3516H184.352C185.695 17.3516 186.789 17.1328 187.633 16.6953C188.477 16.2422 189.094 15.6172 189.484 14.8203C189.875 14.0234 190.07 13.125 190.07 12.125C190.07 11.1094 189.875 10.1641 189.484 9.28906C189.094 8.41406 188.477 7.71094 187.633 7.17969C186.789 6.64844 185.695 6.38281 184.352 6.38281H178.094V35H171.062V0.875H184.352C187.023 0.875 189.312 1.35938 191.219 2.32812C193.141 3.28125 194.609 4.60156 195.625 6.28906C196.641 7.97656 197.148 9.90625 197.148 12.0781C197.148 14.2812 196.641 16.1875 195.625 17.7969C194.609 19.4062 193.141 20.6484 191.219 21.5234C189.312 22.3984 187.023 22.8359 184.352 22.8359Z" fill="black"/>
</svg>
